<?xml version="1.0" standalone="no"?>
<!DOCTYPE svg PUBLIC "-//W3C//DTD SVG 20010904//EN"
 "http://www.w3.org/TR/2001/REC-SVG-20010904/DTD/svg10.dtd">
<svg version="1.0" xmlns="http://www.w3.org/2000/svg"
 width="1024.000000pt" height="1024.000000pt" viewBox="0 0 1024.000000 1024.000000"
 preserveAspectRatio="xMidYMid meet">

<g transform="translate(0.000000,1024.000000) scale(0.100000,-0.100000)"
fill="#000000" stroke="none">
<path d="M4995 9745 c-22 -7 -67 -18 -100 -25 -61 -12 -124 -26 -345 -79 -69
-17 -174 -42 -235 -56 -60 -13 -148 -34 -195 -44 -47 -11 -128 -30 -180 -42
-52 -11 -167 -38 -255 -59 -88 -22 -205 -48 -260 -60 -55 -12 -111 -25 -125
-30 -14 -5 -41 -11 -60 -15 -56 -10 -301 -66 -352 -81 -26 -8 -54 -14 -63 -14
-9 0 -90 -18 -178 -39 -89 -21 -207 -49 -262 -61 -55 -12 -113 -26 -130 -31
-16 -6 -61 -16 -100 -24 -165 -31 -302 -63 -322 -73 -12 -7 -38 -12 -58 -12
-19 0 -52 -7 -72 -15 -19 -8 -48 -15 -64 -15 -16 0 -46 -7 -66 -15 -21 -8 -99
-26 -173 -41 -175 -34 -195 -42 -210 -89 -13 -41 0 -89 29 -104 17 -9 265 -71
360 -91 30 -6 59 -14 65 -19 6 -5 34 -11 63 -14 28 -3 60 -10 71 -16 10 -5 47
-15 82 -20 34 -6 65 -13 69 -16 9 -10 10 -2925 1 -3025 -5 -47 -17 -128 -28
-180 -40 -189 -53 -276 -55 -356 -1 -75 1 -84 27 -119 55 -72 166 -96 238 -52
64 39 83 72 82 147 -1 102 -46 405 -70 470 -15 41 -16 180 -18 1548 0 827 2
1509 5 1514 9 14 43 8 234 -39 214 -53 305 -73 335 -73 14 0 32 -4 40 -10 13
-8 14 -344 15 -2699 l0 -2689 65 -69 c36 -38 131 -145 212 -238 182 -210 189
-218 298 -335 48 -52 107 -118 131 -146 106 -125 405 -468 468 -537 126 -139
349 -393 440 -501 19 -23 67 -75 105 -116 39 -42 105 -115 146 -163 77 -90 93
-108 170 -194 25 -27 76 -85 115 -129 175 -198 182 -201 279 -101 47 47 243
266 361 401 6 6 46 52 90 101 103 116 180 204 280 320 76 88 340 388 367 417
7 7 28 31 47 53 19 22 61 70 95 106 34 36 108 121 166 189 58 68 137 158 176
199 39 42 99 110 134 151 35 41 87 100 116 130 29 30 74 82 101 114 26 33 98
113 158 179 61 65 119 131 130 145 20 26 20 44 23 2717 2 1479 6 2693 10 2697
7 7 47 17 252 63 36 8 153 37 260 64 107 27 249 61 315 76 66 15 143 33 171
41 28 8 123 32 210 54 186 46 199 55 191 133 -2 27 -11 55 -18 62 -8 8 -61 26
-119 40 -58 15 -139 35 -181 46 -42 10 -87 19 -101 19 -13 0 -28 4 -34 10 -5
5 -27 12 -49 15 -22 3 -56 11 -75 17 -32 10 -161 41 -305 72 -59 14 -89 21
-235 57 -41 10 -156 37 -255 59 -99 23 -200 48 -225 56 -25 8 -54 14 -64 14
-11 0 -42 7 -70 15 -98 30 -465 115 -493 115 -16 0 -34 5 -39 10 -6 6 -33 15
-60 20 -27 4 -112 25 -189 44 -77 20 -169 43 -205 51 -36 8 -123 28 -195 44
-71 17 -152 35 -180 41 -27 7 -72 18 -100 25 -27 8 -81 21 -120 29 -38 9 -143
34 -233 56 -171 42 -211 46 -277 25z m98 -207 c17 -20 16 -49 -4 -73 -4 -6
-36 -16 -71 -24 -35 -7 -85 -19 -113 -26 -56 -15 -143 -35 -290 -65 -105 -22
-165 -37 -350 -86 -33 -8 -71 -18 -85 -20 -14 -3 -52 -11 -85 -19 -33 -7 -94
-20 -135 -29 -154 -32 -225 -49 -235 -56 -5 -5 -37 -11 -70 -15 -33 -4 -68
-12 -79 -17 -10 -6 -51 -16 -90 -24 -110 -21 -160 -32 -268 -59 -54 -14 -110
-25 -124 -25 -14 0 -33 -4 -43 -10 -10 -5 -51 -17 -92 -26 -41 -9 -99 -22
-129 -29 -85 -21 -329 -75 -385 -86 -27 -5 -59 -14 -70 -18 -27 -12 -134 -37
-280 -67 l-120 -24 -94 20 c-108 24 -116 27 -102 44 11 14 53 27 141 46 30 7
84 19 120 26 36 8 99 21 140 28 41 8 111 24 155 36 88 24 189 48 455 104 96
21 204 46 240 56 88 25 291 73 490 114 91 20 201 44 245 56 44 12 109 27 145
35 36 8 115 25 175 39 61 14 144 33 185 42 41 10 94 23 118 31 23 7 53 13 65
13 12 0 39 6 62 14 37 13 156 42 270 66 28 5 95 21 150 34 107 27 130 26 158
-6z m137 -655 c34 -20 37 -34 13 -55 -64 -55 -293 -48 -331 10 -19 29 -11 37
58 56 73 20 219 14 260 -11z m-2236 -2031 c3 -4 40 -19 83 -32 80 -24 113 -48
113 -82 0 -10 4 -17 9 -13 16 9 22 -11 25 -85 2 -39 9 -77 16 -84 6 -8 34 -17
61 -21 28 -4 63 -13 77 -21 51 -26 62 -20 62 36 0 28 2 50 5 50 3 0 17 -7 30
-16 14 -9 31 -14 40 -11 8 4 17 2 20 -3 4 -6 -9 -10 -29 -10 -32 0 -36 -3 -36
-25 0 -27 35 -73 46 -62 4 3 14 2 24 -3 9 -5 41 -10 71 -10 32 -1 71 -11 97
-24 37 -18 44 -19 52 -6 9 15 11 13 14 -12 0 -6 6 -13 12 -15 10 -3 25 25 28
54 1 6 4 15 8 18 4 4 4 13 2 20 -3 7 3 15 12 19 22 8 39 -16 19 -27 -19 -10
-20 -31 -1 -24 20 8 38 -13 25 -29 -14 -17 -3 -34 22 -34 10 0 19 -5 19 -10 0
-6 6 -10 13 -9 6 1 30 -1 52 -6 59 -12 78 -13 97 -4 11 6 18 4 22 -6 8 -22 23
-18 29 6 9 34 24 13 31 -43 9 -77 12 -3171 3 -3185 -7 -11 -282 -15 -1107 -18
l-135 0 -3 1835 c-1 1009 0 1850 3 1868 5 27 10 32 35 32 16 0 31 -4 34 -8z
m3750 -167 c3 -8 18 -16 33 -16 27 -2 27 -2 3 -6 -14 -3 -28 -10 -31 -15 -4
-7 -20 -6 -45 3 -30 10 -34 14 -19 17 11 2 24 10 28 18 10 18 23 18 31 -1z
m89 -24 l-6 -25 -9 23 c-9 25 -1 48 13 34 5 -5 6 -19 2 -32z m-3266 -15 c3 -3
-15 -5 -41 -4 -43 0 -54 6 -40 20 6 6 72 -7 81 -16z m200 -48 c-3 -8 -6 -5 -6
6 -1 11 2 17 5 13 3 -3 4 -12 1 -19z m2678 12 c-3 -5 3 -10 14 -10 10 0 21 6
24 13 7 19 30 -7 25 -29 -2 -14 -13 -20 -38 -22 -23 -2 -31 0 -22 6 10 7 7 11
-14 16 -16 4 -32 13 -36 19 -5 7 -8 0 -8 -15 0 -29 -24 -39 -33 -15 -4 9 -8 8
-17 -3 -9 -11 -13 -12 -17 -2 -2 6 -12 12 -21 12 -15 0 -15 -2 -2 -10 11 -7
-1 -10 -42 -10 -64 0 -81 -18 -35 -37 35 -15 97 -17 97 -3 0 6 33 10 79 10 46
0 81 4 83 10 5 17 95 -27 101 -50 6 -22 -5 -25 -33 -10 -13 7 -19 6 -23 -4
-12 -30 34 -36 71 -10 12 8 32 13 45 10 12 -3 16 -3 10 0 -7 3 -13 19 -13 35
0 27 3 29 39 29 29 0 41 -5 44 -17 4 -14 5 -12 6 5 1 28 21 30 21 2 0 -30 25
-35 51 -11 18 16 20 24 11 33 -28 28 -5 50 28 28 13 -9 13 -11 0 -20 -12 -7
-12 -12 -2 -22 10 -10 17 -10 32 0 10 6 26 9 34 6 8 -3 17 -1 21 5 9 15 65 14
67 -1 1 -7 2 -625 3 -1373 0 -748 2 -1510 4 -1694 2 -267 0 -336 -11 -342 -7
-5 -244 -9 -525 -9 l-513 0 0 23 c-1 55 2 1054 6 2077 4 1109 7 1310 19 1330
3 5 25 10 48 10 23 0 69 7 102 14 33 8 93 16 133 17 41 2 76 7 78 11 3 5 30 8
60 8 34 0 53 -4 49 -10z m-2555 -14 c0 -11 -19 -15 -25 -6 -3 5 1 10 9 10 9 0
16 -2 16 -4z m635 -32 c174 -27 528 -38 875 -27 173 6 320 8 326 6 7 -3 13
-67 17 -181 9 -261 8 -3215 -1 -3229 -6 -10 -160 -12 -687 -10 l-680 2 -3
1714 c-1 1258 1 1717 9 1727 14 17 19 17 144 -2z m2130 6 c3 -5 1 -10 -4 -10
-6 0 -11 5 -11 10 0 6 2 10 4 10 3 0 8 -4 11 -10z m-2802 -7 c-7 -2 -19 -2
-25 0 -7 3 -2 5 12 5 14 0 19 -2 13 -5z m-152 -44 c30 -16 5 -39 -42 -39 -22
0 -39 2 -39 4 0 2 -3 11 -6 19 -9 24 52 35 87 16z m247 -15 c-2 -1 -16 -5 -32
-8 -22 -4 -25 -2 -16 8 6 8 20 12 31 9 11 -3 18 -7 17 -9z m3112 -3284 c0 -11
-4 -20 -10 -20 -5 0 -10 9 -10 20 0 11 5 20 10 20 6 0 10 -9 10 -20z m60 -12
c0 -9 4 -8 11 2 8 11 12 12 16 3 2 -7 13 -13 24 -13 14 0 19 -7 19 -30 0 -26
-3 -30 -29 -30 -16 0 -31 6 -35 15 -3 8 -11 15 -18 15 -7 0 -19 9 -25 19 -10
16 -9 20 5 24 29 8 32 7 32 -5z m-53 -282 c3 -3 2 -14 -3 -25 -10 -21 -220
-262 -330 -380 -38 -40 -76 -84 -84 -97 -8 -13 -18 -24 -21 -24 -4 0 -32 -30
-64 -67 -32 -38 -88 -102 -125 -143 -37 -41 -110 -125 -161 -186 -52 -61 -132
-153 -178 -205 -46 -52 -100 -112 -119 -134 -19 -22 -85 -96 -146 -165 -61
-69 -132 -150 -158 -180 -130 -152 -117 -143 -199 -147 -98 -4 -725 -23 -812
-24 -63 -1 -71 2 -95 28 -52 55 -198 223 -287 329 -49 59 -115 135 -145 169
-166 186 -211 235 -266 294 -34 36 -82 91 -107 122 -25 30 -61 71 -79 91 -19
19 -48 52 -64 74 -16 21 -47 57 -70 79 -22 22 -58 62 -80 89 -21 27 -69 81
-105 120 -67 72 -201 228 -273 317 -69 87 -273 79 1969 75 1098 -2 1999 -6
2002 -10z"/>
<path d="M6137 6513 c-3 -5 0 -19 5 -33 7 -20 11 -22 18 -10 10 16 12 12 24
-42 11 -47 25 -36 46 35 8 26 8 27 -31 27 -28 0 -39 4 -39 15 0 16 -16 21 -23
8z"/>
<path d="M6240 6434 c0 -12 11 -14 50 -13 27 2 53 0 56 -4 8 -8 44 10 44 22 0
5 -34 9 -75 9 -61 1 -75 -2 -75 -14z"/>
<path d="M7151 3174 c0 -11 3 -14 6 -6 3 7 2 16 -1 19 -3 4 -6 -2 -5 -13z"/>
</g>
</svg>
